<svg xmlns="http://www.w3.org/2000/svg" xmlns:xlink="http://www.w3.org/1999/xlink" xmlns:lucid="lucid" width="1320" height="790"><g transform="translate(-200 -180)" lucid:page-tab-id="0_0"><path d="M0 0h1870.87v1322.83H0z" fill="#fff"/><path d="M220 294c0-7.73 6.27-14 14-14h132c7.73 0 14 6.27 14 14v152c0 7.73-6.27 14-14 14H234c-7.73 0-14-6.27-14-14z" stroke="#999" stroke-width="7" fill="#fff"/><use xlink:href="#a" transform="matrix(1,0,0,1,232,292) translate(24.840000000000018 88.49999999999999)"/><path d="M480 206c0-3.3 2.7-6 6-6h208c3.3 0 6 2.7 6 6v68c0 3.3-2.7 6-6 6H486c-3.3 0-6-2.7-6-6z" stroke="#c92d39" stroke-width="3" fill="#fff"/><use xlink:href="#b" transform="matrix(1,0,0,1,485,205) translate(88.98148148148148 39.65277777777778)"/><path d="M480 304.44c0-3.32 2.7-6 6-6h208c3.3 0 6 2.68 6 6v68c0 3.3-2.7 6-6 6H486c-3.3 0-6-2.7-6-6z" stroke="#19967d" stroke-width="3" fill="#fff"/><use xlink:href="#c" transform="matrix(1,0,0,1,485,303.4375) translate(77.22222222222223 39.65277777777778)"/><path d="M480 402.88c0-3.32 2.7-6 6-6h208c3.3 0 6 2.68 6 6v68c0 3.3-2.7 6-6 6H486c-3.3 0-6-2.7-6-6z" stroke="#0c7cba" stroke-width="3" fill="#fff"/><use xlink:href="#d" transform="matrix(1,0,0,1,485,401.875) translate(26.69753086419753 39.65277777777778)"/><path d="M480 526c0-3.3 2.7-6 6-6h208c3.3 0 6 2.7 6 6v68c0 3.3-2.7 6-6 6H486c-3.3 0-6-2.7-6-6z" stroke="#ef8d22" stroke-width="3" fill="#fff"/><use xlink:href="#e" transform="matrix(1,0,0,1,485,525) translate(73.61111111111111 39.65277777777778)"/><path d="M384.5 370H425c3.3 0 6-2.7 6-6V246c0-3.3 2.7-6 6-6h23" stroke="#c92d39" stroke-width="2" fill="none"/><path d="M384.53 371h-1.03v-2h1.03z" fill="#c92d39"/><path d="M475.26 240L461 244.64v-9.28z" stroke="#c92d39" stroke-width="2" fill="#c92d39"/><path d="M384.5 370H425c3.3 0 6-2.7 6-6v-19.56c0-3.32 2.7-6 6-6h23" stroke="#19967d" stroke-width="2" fill="none"/><path d="M384.53 371h-1.03v-2h1.03z" fill="#19967d"/><path d="M475.26 338.44L461 343.07v-9.27z" stroke="#19967d" stroke-width="2" fill="#19967d"/><path d="M384.5 370H425c3.3 0 6 2.7 6 6v54.88c0 3.3 2.7 6 6 6h23" stroke="#0c7cba" stroke-width="2" fill="none"/><path d="M384.53 371h-1.03v-2h1.03z" fill="#0c7cba"/><path d="M475.26 436.88L461 441.5v-9.26z" stroke="#0c7cba" stroke-width="2" fill="#0c7cba"/><path d="M384.5 370H425c3.3 0 6 2.7 6 6v178c0 3.3 2.7 6 6 6h23" stroke="#ef8d22" stroke-width="2" fill="none"/><path d="M384.53 371h-1.03v-2h1.03z" fill="#ef8d22"/><path d="M475.26 560L461 564.64v-9.28z" stroke="#ef8d22" stroke-width="2" fill="#ef8d22"/><path d="M820 486c0-3.3 2.7-6 6-6h128c3.3 0 6 2.7 6 6v28c0 3.3-2.7 6-6 6H826c-3.3 0-6-2.7-6-6z" stroke="#ff8f80" stroke-width="3" fill="#fff"/><use xlink:href="#f" transform="matrix(1,0,0,1,825,485) translate(49.01234567901235 19.65277777777778)"/><path d="M820 566c0-3.3 2.7-6 6-6h128c3.3 0 6 2.7 6 6v28c0 3.3-2.7 6-6 6H826c-3.3 0-6-2.7-6-6z" stroke="#834187" stroke-width="3" fill="#fff"/><use xlink:href="#g" transform="matrix(1,0,0,1,825,565) translate(48.3641975308642 19.65277777777778)"/><path d="M702.5 560H754c3.3 0 6-2.7 6-6v-48c0-3.3 2.7-6 6-6h34" stroke="#ff8f80" stroke-width="2" fill="none"/><path d="M702.53 561h-1.03v-2h1.03z" fill="#ff8f80"/><path d="M815.26 500L801 504.64v-9.28z" stroke="#ff8f80" stroke-width="2" fill="#ff8f80"/><path d="M702.5 560H754c3.3 0 6 2.7 6 6v14.15c0 3.3 2.7 6 6 6h34" stroke="#834187" stroke-width="2" fill="none"/><path d="M702.53 561h-1.03v-2h1.03z" fill="#834187"/><path d="M815.26 586.15L801 590.78v-9.27z" stroke="#834187" stroke-width="2" fill="#834187"/><path d="M702.5 240h479" stroke="#c92d39" stroke-width="2" fill="none"/><path d="M702.53 241h-1.03v-2h1.03z" fill="#c92d39"/><path d="M1196.76 240l-14.26 4.64v-9.28z" stroke="#c92d39" stroke-width="2" fill="#c92d39"/><path d="M702.5 338.44h479" stroke="#19967d" stroke-width="2" fill="none"/><path d="M702.53 339.44h-1.03v-2h1.03z" fill="#19967d"/><path d="M1196.76 338.44l-14.26 4.63v-9.27z" stroke="#19967d" stroke-width="2" fill="#19967d"/><path d="M702.5 436.88h479" stroke="#0c7cba" stroke-width="2" fill="none"/><path d="M702.53 437.88h-1.03v-2h1.03z" fill="#0c7cba"/><path d="M1196.76 436.88l-14.26 4.63v-9.26z" stroke="#0c7cba" stroke-width="2" fill="#0c7cba"/><path d="M962.5 580h219" stroke="#834187" stroke-width="2" fill="none"/><path d="M962.53 581h-1.03v-2h1.03z" fill="#834187"/><path d="M1196.76 580l-14.26 4.64v-9.28z" stroke="#834187" stroke-width="2" fill="#834187"/><path d="M820 206c0-3.3 2.7-6 6-6h148c3.3 0 6 2.7 6 6v28c0 3.3-2.7 6-6 6H826c-3.3 0-6-2.7-6-6z" stroke="#000" stroke-opacity="0" stroke-width="3" fill="#fff" fill-opacity="0"/><use xlink:href="#h" transform="matrix(1,0,0,1,825,205) translate(26.67901234567902 17.97222222222222)"/><path d="M820 304.44c0-3.32 2.7-6 6-6h148c3.3 0 6 2.68 6 6v28c0 3.3-2.7 6-6 6H826c-3.3 0-6-2.7-6-6z" stroke="#000" stroke-opacity="0" stroke-width="3" fill="#fff" fill-opacity="0"/><use xlink:href="#h" transform="matrix(1,0,0,1,825,303.4375) translate(26.67901234567902 17.97222222222222)"/><path d="M820 402.88c0-3.32 2.7-6 6-6h148c3.3 0 6 2.68 6 6v28c0 3.3-2.7 6-6 6H826c-3.3 0-6-2.7-6-6z" stroke="#000" stroke-opacity="0" stroke-width="3" fill="#fff" fill-opacity="0"/><use xlink:href="#h" transform="matrix(1,0,0,1,825,401.875) translate(26.67901234567902 17.97222222222222)"/><path d="M1000 466c0-3.3 2.7-6 6-6h148c3.3 0 6 2.7 6 6v28c0 3.3-2.7 6-6 6h-148c-3.3 0-6-2.7-6-6z" stroke="#000" stroke-opacity="0" stroke-width="3" fill="#fff" fill-opacity="0"/><use xlink:href="#h" transform="matrix(1,0,0,1,1005,465) translate(26.67901234567902 17.97222222222222)"/><path d="M962.5 500h219" stroke="#ff8f80" stroke-width="2" fill="none"/><path d="M962.53 501h-1.03v-2h1.03z" fill="#ff8f80"/><path d="M1196.76 500l-14.26 4.64v-9.28z" stroke="#ff8f80" stroke-width="2" fill="#ff8f80"/><path d="M1000 546c0-3.3 2.7-6 6-6h148c3.3 0 6 2.7 6 6v28c0 3.3-2.7 6-6 6h-148c-3.3 0-6-2.7-6-6z" stroke="#000" stroke-opacity="0" stroke-width="3" fill="#fff" fill-opacity="0"/><use xlink:href="#h" transform="matrix(1,0,0,1,1005,545) translate(26.67901234567902 17.97222222222222)"/><path d="M1260 366c0-3.3 2.7-6 6-6h228c3.3 0 6 2.7 6 6v48c0 3.3-2.7 6-6 6h-228c-3.3 0-6-2.7-6-6z" stroke="#000" stroke-opacity="0" stroke-width="3" fill="#fff" fill-opacity="0"/><use xlink:href="#i" transform="matrix(1,0,0,1,1265,365) translate(46.988932291666686 36.464843749999986)"/><path d="M1380 339v-1.92m0-7.66v-3.84m0-7.66v-3.84m0-7.66v-3.84m0-7.66v-3.84m0-7.66v-3.84m0-7.66v-3.83m0-7.68v-1.92M1380 338.97V340" stroke="#5e5e5e" stroke-width="2" fill="none"/><path d="M1380 243.24l4.64 14.26h-9.28z" stroke="#5e5e5e" stroke-width="2" fill="#fff"/><path d="M1380 441v2m0 8.04v4.02m0 8.03v4m0 8.04v4.02m0 8.03v4m0 8.04v4.02m0 8.03v4m0 8.04v4.02m0 8.03v4m0 8.04v4.02m0 8.03v2M1380 441.03V440" stroke="#5e5e5e" stroke-width="2" fill="none"/><path d="M1380 576.76l-4.64-14.26h9.28z" stroke="#5e5e5e" stroke-width="2" fill="#fff"/><path d="M220 809.33c0-3.3 2.7-6 6-6h288c3.3 0 6 2.7 6 6v51.34c0 3.3-2.7 6-6 6H226c-3.3 0-6-2.7-6-6z" stroke="#000" stroke-opacity="0" stroke-width="3" fill="#fff" fill-opacity="0"/><use xlink:href="#j" transform="matrix(1,0,0,1,225,808.3333333333334) translate(5.648148148148152 31.27777777777778)"/><use xlink:href="#k" transform="matrix(1,0,0,1,225,808.3333333333334) translate(72.19135802469135 31.27777777777778)"/><use xlink:href="#l" transform="matrix(1,0,0,1,225,808.3333333333334) translate(199.16666666666669 31.27777777777778)"/><path d="M700 736c0-3.3 2.7-6 6-6h188c3.3 0 6 2.7 6 6v51.33c0 3.32-2.7 6-6 6H706c-3.3 0-6-2.68-6-6z" stroke="#7ab648" stroke-width="3" fill="#fff"/><use xlink:href="#m" transform="matrix(1,0,0,1,705,735.0000001399997) translate(37.716049382716044 31.27777777777778)"/><path d="M700 814.33c0-3.3 2.7-6 6-6h188c3.3 0 6 2.7 6 6v51.34c0 3.3-2.7 6-6 6H706c-3.3 0-6-2.7-6-6z" stroke="#d97707" stroke-width="3" fill="#fff"/><use xlink:href="#n" transform="matrix(1,0,0,1,705,813.3333334033332) translate(25.370370370370352 31.27777777777778)"/><path d="M700 892.67c0-3.32 2.7-6 6-6h188c3.3 0 6 2.68 6 6V944c0 3.3-2.7 6-6 6H706c-3.3 0-6-2.7-6-6z" stroke="#f5819c" stroke-width="3" fill="#fff"/><use xlink:href="#o" transform="matrix(1,0,0,1,705,891.6666666666667) translate(8.641975308641975 31.27777777777778)"/><path d="M680 761.67h-44.75c-3.3 0-6 2.68-6 6V834c0 3.3-2.7 6-6 6H561" stroke="#5e5e5e" stroke-width="2" fill="none"/><path d="M695.26 761.67L681 766.3v-9.27z" stroke="#5e5e5e" stroke-width="2" fill="#5e5e5e"/><path d="M561.03 840H560M680 840H561" stroke="#5e5e5e" stroke-width="2" fill="none"/><path d="M695.26 840L681 844.64v-9.28z" stroke="#5e5e5e" stroke-width="2" fill="#5e5e5e"/><path d="M561.03 840H560M680 918.33h-44.75c-3.3 0-6-2.68-6-6V846c0-3.3-2.7-6-6-6H561" stroke="#5e5e5e" stroke-width="2" fill="none"/><path d="M695.26 918.33L681 922.97v-9.27z" stroke="#5e5e5e" stroke-width="2" fill="#5e5e5e"/><path d="M561.03 840H560" stroke="#5e5e5e" stroke-width="2" fill="none"/><path d="M902.5 761.67h79" stroke="#7ab648" stroke-width="2" fill="none"/><path d="M902.53 762.67h-1.03v-2h1.03z" fill="#7ab648"/><path d="M996.76 761.67l-14.26 4.63v-9.27z" stroke="#7ab648" stroke-width="2" fill="#7ab648"/><path d="M902.5 840h79" stroke="#d97707" stroke-width="2" fill="none"/><path d="M902.53 841h-1.03v-2h1.03z" fill="#d97707"/><path d="M996.76 840l-14.26 4.64v-9.28z" stroke="#d97707" stroke-width="2" fill="#d97707"/><path d="M902.5 918.33h79" stroke="#f5819c" stroke-width="2" fill="none"/><path d="M902.53 919.33h-1.03v-2h1.03z" fill="#f5819c"/><path d="M996.76 918.33l-14.26 4.64v-9.27z" stroke="#f5819c" stroke-width="2" fill="#f5819c"/><defs><path fill="#333" d="M57 0v-720h108V0H57" id="p"/><path fill="#333" d="M20-720h720v108H434V0H326v-612H20v-108" id="q"/><path fill="#333" d="M1029-720h115L882 0h-88L589-561 385 0l-2-1 1 1h-87L35-720h115l191 525 191-525h115l191 525" id="r"/><g id="a"><use transform="matrix(0.03999999999999999,0,0,0.03999999999999999,0,0)" xlink:href="#p"/><use transform="matrix(0.03999999999999999,0,0,0.03999999999999999,8.799999999999997,0)" xlink:href="#q"/><use transform="matrix(0.03999999999999999,0,0,0.03999999999999999,39.15999999999998,0)" xlink:href="#r"/></g><path fill="#333" d="M114-163C36-179 61-72 57 0H25l-1-190h30c1 12-1 29 2 39 6-27 23-49 58-41v29" id="s"/><path fill="#333" d="M177-190C167-65 218 103 67 71c-23-6-38-20-44-43l32-5c15 47 100 32 89-28v-30C133-14 115 1 83 1 29 1 15-40 15-95c0-56 16-97 71-98 29-1 48 16 59 35 1-10 0-23 2-32h30zM94-22c36 0 50-32 50-73 0-42-14-75-50-75-39 0-46 34-46 75s6 73 46 73" id="t"/><path fill="#333" d="M115-194c53 0 69 39 70 98 0 66-23 100-70 100C84 3 66-7 56-30L54 0H23l1-261h32v101c10-23 28-34 59-34zm-8 174c40 0 45-34 45-75 0-40-5-75-45-74-42 0-51 32-51 76 0 43 10 73 51 73" id="u"/><g id="b"><use transform="matrix(0.06172839506172839,0,0,0.06172839506172839,0,0)" xlink:href="#s"/><use transform="matrix(0.06172839506172839,0,0,0.06172839506172839,7.345679012345679,0)" xlink:href="#t"/><use transform="matrix(0.06172839506172839,0,0,0.06172839506172839,19.691358024691358,0)" xlink:href="#u"/></g><path fill="#333" d="M85-194c31 0 48 13 60 33l-1-100h32l1 261h-30c-2-10 0-23-3-31C134-8 116 4 85 4 32 4 16-35 15-94c0-66 23-100 70-100zm9 24c-40 0-46 34-46 75 0 40 6 74 45 74 42 0 51-32 51-76 0-42-9-74-50-73" id="v"/><path fill="#333" d="M100-194c63 0 86 42 84 106H49c0 40 14 67 53 68 26 1 43-12 49-29l28 8c-11 28-37 45-77 45C44 4 14-33 15-96c1-61 26-98 85-98zm52 81c6-60-76-77-97-28-3 7-6 17-6 28h103" id="w"/><path fill="#333" d="M115-194c55 1 70 41 70 98S169 2 115 4C84 4 66-9 55-30l1 105H24l-1-265h31l2 30c10-21 28-34 59-34zm-8 174c40 0 45-34 45-75s-6-73-45-74c-42 0-51 32-51 76 0 43 10 73 51 73" id="x"/><path fill="#333" d="M59-47c-2 24 18 29 38 22v24C64 9 27 4 27-40v-127H5v-23h24l9-43h21v43h35v23H59v120" id="y"/><path fill="#333" d="M106-169C34-169 62-67 57 0H25v-261h32l-1 103c12-21 28-36 61-36 89 0 53 116 60 194h-32v-121c2-32-8-49-39-48" id="z"/><g id="c"><use transform="matrix(0.06172839506172839,0,0,0.06172839506172839,0,0)" xlink:href="#v"/><use transform="matrix(0.06172839506172839,0,0,0.06172839506172839,12.345679012345679,0)" xlink:href="#w"/><use transform="matrix(0.06172839506172839,0,0,0.06172839506172839,24.691358024691358,0)" xlink:href="#x"/><use transform="matrix(0.06172839506172839,0,0,0.06172839506172839,37.03703703703704,0)" xlink:href="#y"/><use transform="matrix(0.06172839506172839,0,0,0.06172839506172839,43.20987654320988,0)" xlink:href="#z"/></g><path fill="#333" d="M-5 72V49h209v23H-5" id="A"/><path fill="#333" d="M96-169c-40 0-48 33-48 73s9 75 48 75c24 0 41-14 43-38l32 2c-6 37-31 61-74 61-59 0-76-41-82-99-10-93 101-131 147-64 4 7 5 14 7 22l-32 3c-4-21-16-35-41-35" id="B"/><path fill="#333" d="M100-194c62-1 85 37 85 99 1 63-27 99-86 99S16-35 15-95c0-66 28-99 85-99zM99-20c44 1 53-31 53-75 0-43-8-75-51-75s-53 32-53 75 10 74 51 75" id="C"/><path fill="#333" d="M24 0v-261h32V0H24" id="D"/><path fill="#333" d="M24-231v-30h32v30H24zM24 0v-190h32V0H24" id="E"/><path fill="#333" d="M9 0v-24l116-142H16v-24h144v24L44-24h123V0H9" id="F"/><g id="d"><use transform="matrix(0.06172839506172839,0,0,0.06172839506172839,0,0)" xlink:href="#v"/><use transform="matrix(0.06172839506172839,0,0,0.06172839506172839,12.345679012345679,0)" xlink:href="#w"/><use transform="matrix(0.06172839506172839,0,0,0.06172839506172839,24.691358024691358,0)" xlink:href="#x"/><use transform="matrix(0.06172839506172839,0,0,0.06172839506172839,37.03703703703704,0)" xlink:href="#y"/><use transform="matrix(0.06172839506172839,0,0,0.06172839506172839,43.20987654320988,0)" xlink:href="#z"/><use transform="matrix(0.06172839506172839,0,0,0.06172839506172839,55.55555555555556,0)" xlink:href="#A"/><use transform="matrix(0.06172839506172839,0,0,0.06172839506172839,67.90123456790124,0)" xlink:href="#B"/><use transform="matrix(0.06172839506172839,0,0,0.06172839506172839,79.01234567901236,0)" xlink:href="#C"/><use transform="matrix(0.06172839506172839,0,0,0.06172839506172839,91.35802469135804,0)" xlink:href="#D"/><use transform="matrix(0.06172839506172839,0,0,0.06172839506172839,96.23456790123458,0)" xlink:href="#C"/><use transform="matrix(0.06172839506172839,0,0,0.06172839506172839,108.58024691358027,0)" xlink:href="#s"/><use transform="matrix(0.06172839506172839,0,0,0.06172839506172839,115.92592592592595,0)" xlink:href="#E"/><use transform="matrix(0.06172839506172839,0,0,0.06172839506172839,120.8024691358025,0)" xlink:href="#F"/><use transform="matrix(0.06172839506172839,0,0,0.06172839506172839,131.9135802469136,0)" xlink:href="#w"/><use transform="matrix(0.06172839506172839,0,0,0.06172839506172839,144.25925925925927,0)" xlink:href="#v"/></g><path fill="#333" d="M141-36C126-15 110 5 73 4 37 3 15-17 15-53c-1-64 63-63 125-63 3-35-9-54-41-54-24 1-41 7-42 31l-33-3c5-37 33-52 76-52 45 0 72 20 72 64v82c-1 20 7 32 28 27v20c-31 9-61-2-59-35zM48-53c0 20 12 33 32 33 41-3 63-29 60-74-43 2-92-5-92 41" id="G"/><path fill="#333" d="M117-194c89-4 53 116 60 194h-32v-121c0-31-8-49-39-48C34-167 62-67 57 0H25l-1-190h30c1 10-1 24 2 32 11-22 29-35 61-36" id="H"/><g id="e"><use transform="matrix(0.06172839506172839,0,0,0.06172839506172839,0,0)" xlink:href="#y"/><use transform="matrix(0.06172839506172839,0,0,0.06172839506172839,6.172839506172839,0)" xlink:href="#w"/><use transform="matrix(0.06172839506172839,0,0,0.06172839506172839,18.51851851851852,0)" xlink:href="#s"/><use transform="matrix(0.06172839506172839,0,0,0.06172839506172839,25.864197530864196,0)" xlink:href="#s"/><use transform="matrix(0.06172839506172839,0,0,0.06172839506172839,33.20987654320987,0)" xlink:href="#G"/><use transform="matrix(0.06172839506172839,0,0,0.06172839506172839,45.55555555555555,0)" xlink:href="#E"/><use transform="matrix(0.06172839506172839,0,0,0.06172839506172839,50.432098765432094,0)" xlink:href="#H"/></g><path fill="#333" d="M127-220V0H93v-220H8v-28h204v28h-85" id="I"/><path fill="#333" d="M240 0l2-218c-23 76-54 145-80 218h-23L58-218 59 0H30v-248h44l77 211c21-75 51-140 76-211h43V0h-30" id="J"/><g id="f"><use transform="matrix(0.06172839506172839,0,0,0.06172839506172839,0,0)" xlink:href="#I"/><use transform="matrix(0.06172839506172839,0,0,0.06172839506172839,13.518518518518517,0)" xlink:href="#J"/></g><path fill="#333" d="M30 0v-248h187v28H63v79h144v27H63v87h162V0H30" id="K"/><g id="g"><use transform="matrix(0.06172839506172839,0,0,0.06172839506172839,0,0)" xlink:href="#K"/><use transform="matrix(0.06172839506172839,0,0,0.06172839506172839,14.814814814814813,0)" xlink:href="#J"/></g><path fill="#5e5e5e" d="M137-138c1-29-70-34-71-4 15 46 118 7 119 86 1 83-164 76-172 9l43-7c4 19 20 25 44 25 33 8 57-30 24-41C81-84 22-81 20-136c-2-80 154-74 161-7" id="L"/><path fill="#5e5e5e" d="M190-63c-7 42-38 67-86 67-59 0-84-38-90-98-12-110 154-137 174-36l-49 2c-2-19-15-32-35-32-30 0-35 28-38 64-6 74 65 87 74 30" id="M"/><path fill="#5e5e5e" d="M185-48c-13 30-37 53-82 52C43 2 14-33 14-96s30-98 90-98c62 0 83 45 84 108H66c0 31 8 55 39 56 18 0 30-7 34-22zm-45-69c5-46-57-63-70-21-2 6-4 13-4 21h74" id="N"/><path fill="#5e5e5e" d="M135-194c87-1 58 113 63 194h-50c-7-57 23-157-34-157-59 0-34 97-39 157H25l-1-190h47c2 12-1 28 3 38 12-26 28-41 61-42" id="O"/><path fill="#5e5e5e" d="M-4 44V30h207v14H-4" id="P"/><path fill="#5e5e5e" d="M115-3C79 11 28 4 28-45v-112H4v-33h27l15-45h31v45h36v33H77v99c-1 23 16 31 38 25v30" id="Q"/><path fill="#5e5e5e" d="M123 10C108 53 80 86 19 72V37c35 8 53-11 59-39L3-190h52l48 148c12-52 28-100 44-148h51" id="R"/><path fill="#5e5e5e" d="M135-194c53 0 70 44 70 98 0 56-19 98-73 100-31 1-45-17-59-34 3 33 2 69 2 105H25l-1-265h48c2 10 0 23 3 31 11-24 29-35 60-35zM114-30c33 0 39-31 40-66 0-38-9-64-40-64-56 0-55 130 0 130" id="S"/><g id="h"><use transform="matrix(0.049382716049382706,0,0,0.049382716049382706,0,0)" xlink:href="#L"/><use transform="matrix(0.049382716049382706,0,0,0.049382716049382706,9.87654320987654,0)" xlink:href="#M"/><use transform="matrix(0.049382716049382706,0,0,0.049382716049382706,19.75308641975308,0)" xlink:href="#N"/><use transform="matrix(0.049382716049382706,0,0,0.049382716049382706,29.629629629629623,0)" xlink:href="#O"/><use transform="matrix(0.049382716049382706,0,0,0.049382716049382706,40.444444444444436,0)" xlink:href="#N"/><use transform="matrix(0.049382716049382706,0,0,0.049382716049382706,50.32098765432097,0)" xlink:href="#P"/><use transform="matrix(0.049382716049382706,0,0,0.049382716049382706,60.19753086419752,0)" xlink:href="#Q"/><use transform="matrix(0.049382716049382706,0,0,0.049382716049382706,66.07407407407406,0)" xlink:href="#R"/><use transform="matrix(0.049382716049382706,0,0,0.049382716049382706,75.9506172839506,0)" xlink:href="#S"/><use transform="matrix(0.049382716049382706,0,0,0.049382716049382706,86.76543209876542,0)" xlink:href="#N"/></g><path fill="#333" d="M157-1349h916v228H757v893h316V0H157v-228h316v-893H157v-228" id="T"/><path fill="#333" d="M934-1102c199 0 220 177 220 381V0H926c-2-260 10-533-4-785-4-72-14-138-83-138-34 0-61 27-81 81s-29 134-29 241V0H501c-2-260 9-533-5-785-4-72-13-138-82-138-46 0-65 47-80 93-21 67-30 155-30 248V0H75c-3-360 6-732-6-1082h209c6 50 3 123 8 175 36-100 83-195 216-195 135 0 166 79 196 196 42-105 93-196 236-196" id="U"/><path fill="#333" d="M775-193C708-75 621 20 439 20 226 20 106-93 106-306c0-251 170-341 417-346l223-4c4-143-12-264-148-264-103 0-141 58-150 153l-293-14c37-219 194-321 455-321 263 0 418 130 417 390v392c1 84 5 161 89 160 21 0 42-2 62-6v152c-57 15-108 27-180 26-145 0-202-73-217-205h-6zm-256 17c168 0 234-139 227-325-166 4-347-25-347 173 0 94 33 152 120 152" id="V"/><path fill="#333" d="M1108-33c-3 314-178 467-492 467-243 0-400-94-447-291l281-33c17 79 82 141 174 141 176 0 212-155 205-347-2-40 5-80 0-115C773-85 665-12 501-12c-288 0-377-242-377-538 0-242 65-426 223-510 50-26 108-39 175-39 160 0 253 78 307 191h5c1-58 5-125 14-174h266c-12 335-3 703-6 1049zM811-384c25-82 27-259 1-342-30-99-77-180-190-180-172 0-205 171-205 356 0 116 18 202 54 258 48 76 129 107 221 70 62-25 96-86 119-162" id="W"/><path fill="#333" d="M1113-274C1038-96 884 20 626 20c-352 0-526-209-526-566 0-358 185-556 530-556 358 0 496 251 499 615H395c5 180 68 319 245 319 102 0 186-45 208-129zM857-663c-6-177-128-307-315-247-94 30-141 121-145 247h460" id="X"/><path fill="#333" d="M622-916c-112 2-200 14-200 111 0 90 89 101 168 121 234 58 514 77 514 368C1104-4 751 54 434 5 267-21 161-112 121-270l247-37c24 111 113 145 252 141 114-3 226-12 226-124 0-101-103-113-192-134-225-54-490-76-490-351 0-247 201-328 458-328 245 0 413 88 457 292l-249 26c-16-98-92-133-208-131" id="Y"/><g id="i"><use transform="matrix(0.01844618055555555,0,0,0.01844618055555555,0,0)" xlink:href="#T"/><use transform="matrix(0.01844618055555555,0,0,0.01844618055555555,22.67035590277777,0)" xlink:href="#U"/><use transform="matrix(0.01844618055555555,0,0,0.01844618055555555,45.34071180555554,0)" xlink:href="#V"/><use transform="matrix(0.01844618055555555,0,0,0.01844618055555555,68.01106770833331,0)" xlink:href="#W"/><use transform="matrix(0.01844618055555555,0,0,0.01844618055555555,90.68142361111109,0)" xlink:href="#X"/><use transform="matrix(0.01844618055555555,0,0,0.01844618055555555,113.35177951388887,0)" xlink:href="#Y"/></g><path fill="#333" d="M206 0h-36l-40-164L89 0H53L-1-190h32L70-26l43-164h34l41 164 42-164h31" id="Z"/><g id="j"><use transform="matrix(0.06172839506172839,0,0,0.06172839506172839,0,0)" xlink:href="#Z"/><use transform="matrix(0.06172839506172839,0,0,0.06172839506172839,15.987654320987653,0)" xlink:href="#z"/><use transform="matrix(0.06172839506172839,0,0,0.06172839506172839,28.333333333333332,0)" xlink:href="#w"/><use transform="matrix(0.06172839506172839,0,0,0.06172839506172839,40.67901234567901,0)" xlink:href="#s"/><use transform="matrix(0.06172839506172839,0,0,0.06172839506172839,48.02469135802469,0)" xlink:href="#w"/></g><g id="k"><use transform="matrix(0.06172839506172839,0,0,0.06172839506172839,0,0)" xlink:href="#L"/><use transform="matrix(0.06172839506172839,0,0,0.06172839506172839,12.345679012345679,0)" xlink:href="#M"/><use transform="matrix(0.06172839506172839,0,0,0.06172839506172839,24.691358024691358,0)" xlink:href="#N"/><use transform="matrix(0.06172839506172839,0,0,0.06172839506172839,37.03703703703704,0)" xlink:href="#O"/><use transform="matrix(0.06172839506172839,0,0,0.06172839506172839,50.55555555555556,0)" xlink:href="#N"/><use transform="matrix(0.06172839506172839,0,0,0.06172839506172839,62.901234567901234,0)" xlink:href="#P"/><use transform="matrix(0.06172839506172839,0,0,0.06172839506172839,75.24691358024691,0)" xlink:href="#Q"/><use transform="matrix(0.06172839506172839,0,0,0.06172839506172839,82.5925925925926,0)" xlink:href="#R"/><use transform="matrix(0.06172839506172839,0,0,0.06172839506172839,94.93827160493828,0)" xlink:href="#S"/><use transform="matrix(0.06172839506172839,0,0,0.06172839506172839,108.4567901234568,0)" xlink:href="#N"/></g><path fill="#333" d="M135-143c-3-34-86-38-87 0 15 53 115 12 119 90S17 21 10-45l28-5c4 36 97 45 98 0-10-56-113-15-118-90-4-57 82-63 122-42 12 7 21 19 24 35" id="aa"/><path fill="#333" d="M33-154v-36h34v36H33zM33 0v-36h34V0H33" id="ab"/><g id="l"><use transform="matrix(0.06172839506172839,0,0,0.06172839506172839,0,0)" xlink:href="#v"/><use transform="matrix(0.06172839506172839,0,0,0.06172839506172839,12.345679012345679,0)" xlink:href="#w"/><use transform="matrix(0.06172839506172839,0,0,0.06172839506172839,24.691358024691358,0)" xlink:href="#H"/><use transform="matrix(0.06172839506172839,0,0,0.06172839506172839,37.03703703703704,0)" xlink:href="#C"/><use transform="matrix(0.06172839506172839,0,0,0.06172839506172839,49.382716049382715,0)" xlink:href="#y"/><use transform="matrix(0.06172839506172839,0,0,0.06172839506172839,55.55555555555556,0)" xlink:href="#w"/><use transform="matrix(0.06172839506172839,0,0,0.06172839506172839,67.90123456790124,0)" xlink:href="#aa"/><use transform="matrix(0.06172839506172839,0,0,0.06172839506172839,79.01234567901236,0)" xlink:href="#ab"/></g><path fill="#333" d="M101-234c-31-9-42 10-38 44h38v23H63V0H32v-167H5v-23h27c-7-52 17-82 69-68v24" id="ac"/><g id="m"><use transform="matrix(0.06172839506172839,0,0,0.06172839506172839,0,0)" xlink:href="#ac"/><use transform="matrix(0.06172839506172839,0,0,0.06172839506172839,6.172839506172839,0)" xlink:href="#C"/><use transform="matrix(0.06172839506172839,0,0,0.06172839506172839,18.51851851851852,0)" xlink:href="#s"/><use transform="matrix(0.06172839506172839,0,0,0.06172839506172839,25.864197530864196,0)" xlink:href="#w"/><use transform="matrix(0.06172839506172839,0,0,0.06172839506172839,38.20987654320987,0)" xlink:href="#aa"/><use transform="matrix(0.06172839506172839,0,0,0.06172839506172839,49.32098765432099,0)" xlink:href="#y"/><use transform="matrix(0.06172839506172839,0,0,0.06172839506172839,55.49382716049383,0)" xlink:href="#A"/><use transform="matrix(0.06172839506172839,0,0,0.06172839506172839,67.8395061728395,0)" xlink:href="#y"/><use transform="matrix(0.06172839506172839,0,0,0.06172839506172839,74.01234567901234,0)" xlink:href="#s"/><use transform="matrix(0.06172839506172839,0,0,0.06172839506172839,81.35802469135803,0)" xlink:href="#G"/><use transform="matrix(0.06172839506172839,0,0,0.06172839506172839,93.70370370370371,0)" xlink:href="#E"/><use transform="matrix(0.06172839506172839,0,0,0.06172839506172839,98.58024691358025,0)" xlink:href="#D"/><use transform="matrix(0.06172839506172839,0,0,0.06172839506172839,103.4567901234568,0)" xlink:href="#aa"/></g><path fill="#333" d="M143 0L79-87 56-68V0H24v-261h32v163l83-92h37l-77 82L181 0h-38" id="ad"/><path fill="#333" d="M179-190L93 31C79 59 56 82 12 73V49c39 6 53-20 64-50L1-190h34L92-34l54-156h33" id="ae"/><g id="n"><use transform="matrix(0.06172839506172839,0,0,0.06172839506172839,0,0)" xlink:href="#s"/><use transform="matrix(0.06172839506172839,0,0,0.06172839506172839,7.345679012345679,0)" xlink:href="#C"/><use transform="matrix(0.06172839506172839,0,0,0.06172839506172839,19.691358024691358,0)" xlink:href="#B"/><use transform="matrix(0.06172839506172839,0,0,0.06172839506172839,30.80246913580247,0)" xlink:href="#ad"/><use transform="matrix(0.06172839506172839,0,0,0.06172839506172839,41.91358024691358,0)" xlink:href="#ae"/><use transform="matrix(0.06172839506172839,0,0,0.06172839506172839,53.0246913580247,0)" xlink:href="#A"/><use transform="matrix(0.06172839506172839,0,0,0.06172839506172839,65.37037037037038,0)" xlink:href="#y"/><use transform="matrix(0.06172839506172839,0,0,0.06172839506172839,71.54320987654322,0)" xlink:href="#w"/><use transform="matrix(0.06172839506172839,0,0,0.06172839506172839,83.8888888888889,0)" xlink:href="#s"/><use transform="matrix(0.06172839506172839,0,0,0.06172839506172839,91.23456790123458,0)" xlink:href="#s"/><use transform="matrix(0.06172839506172839,0,0,0.06172839506172839,98.58024691358027,0)" xlink:href="#G"/><use transform="matrix(0.06172839506172839,0,0,0.06172839506172839,110.92592592592595,0)" xlink:href="#E"/><use transform="matrix(0.06172839506172839,0,0,0.06172839506172839,115.8024691358025,0)" xlink:href="#H"/><use transform="matrix(0.06172839506172839,0,0,0.06172839506172839,128.14814814814818,0)" xlink:href="#aa"/></g><path fill="#333" d="M84 4C-5 8 30-112 23-190h32v120c0 31 7 50 39 49 72-2 45-101 50-169h31l1 190h-30c-1-10 1-25-2-33-11 22-28 36-60 37" id="af"/><g id="o"><use transform="matrix(0.06172839506172839,0,0,0.06172839506172839,0,0)" xlink:href="#aa"/><use transform="matrix(0.06172839506172839,0,0,0.06172839506172839,11.11111111111111,0)" xlink:href="#af"/><use transform="matrix(0.06172839506172839,0,0,0.06172839506172839,23.45679012345679,0)" xlink:href="#u"/><use transform="matrix(0.06172839506172839,0,0,0.06172839506172839,35.80246913580247,0)" xlink:href="#A"/><use transform="matrix(0.06172839506172839,0,0,0.06172839506172839,48.148148148148145,0)" xlink:href="#af"/><use transform="matrix(0.06172839506172839,0,0,0.06172839506172839,60.49382716049382,0)" xlink:href="#s"/><use transform="matrix(0.06172839506172839,0,0,0.06172839506172839,67.8395061728395,0)" xlink:href="#u"/><use transform="matrix(0.06172839506172839,0,0,0.06172839506172839,80.18518518518519,0)" xlink:href="#G"/><use transform="matrix(0.06172839506172839,0,0,0.06172839506172839,92.53086419753087,0)" xlink:href="#H"/><use transform="matrix(0.06172839506172839,0,0,0.06172839506172839,104.87654320987656,0)" xlink:href="#A"/><use transform="matrix(0.06172839506172839,0,0,0.06172839506172839,117.22222222222224,0)" xlink:href="#G"/><use transform="matrix(0.06172839506172839,0,0,0.06172839506172839,129.56790123456793,0)" xlink:href="#s"/><use transform="matrix(0.06172839506172839,0,0,0.06172839506172839,136.9135802469136,0)" xlink:href="#w"/><use transform="matrix(0.06172839506172839,0,0,0.06172839506172839,149.25925925925927,0)" xlink:href="#G"/><use transform="matrix(0.06172839506172839,0,0,0.06172839506172839,161.60493827160494,0)" xlink:href="#aa"/></g></defs></g></svg>